<svg xmlns="http://www.w3.org/2000/svg" version="1.1" xmlns:xlink="http://www.w3.org/1999/xlink" xmlns:svgjs="http://svgjs.dev/svgjs" width="2000" height="252" viewBox="0 0 2000 252"><g transform="matrix(1,0,0,1,-1.2121212121212466,-0.9480521753050084)"><svg viewBox="0 0 396 50" data-background-color="#000000" preserveAspectRatio="xMidYMid meet" height="252" width="2000" xmlns="http://www.w3.org/2000/svg" xmlns:xlink="http://www.w3.org/1999/xlink"><g id="tight-bounds" transform="matrix(1,0,0,1,0.2400000000000091,0.18810559033829577)"><svg viewBox="0 0 395.52 49.62378881932338" height="49.62378881932338" width="395.52"><g><svg viewBox="0 0 461.11278798901424 57.85336674013015" height="49.62378881932338" width="395.52"><g transform="matrix(1,0,0,1,65.59278798901427,10.882692046854665)"><svg viewBox="0 0 395.52 36.08798264642082" height="36.08798264642082" width="395.52"><g id="textblocktransform"><svg viewBox="0 0 395.52 36.08798264642082" height="36.08798264642082" width="395.52" id="textblock"><g><svg viewBox="0 0 395.52 36.08798264642082" height="36.08798264642082" width="395.52"><g transform="matrix(1,0,0,1,0,0)"><svg width="395.52" viewBox="2.2 -33.25 368.76 33.65" height="36.08798264642082" data-palette-color="url(#0927a55c-f6f2-4c69-ba57-413ae8d67396)"></svg></g></svg></g></svg></g></svg></g><g><svg viewBox="0 0 57.073281397777826 57.85336674013015" height="57.85336674013015" width="57.073281397777826"><g><svg xmlns="http://www.w3.org/2000/svg" data-name="Layer 1" viewBox="2 1.1800000000000002 60.000024348596575 60.82011281011169" x="0" y="0" height="57.85336674013015" width="57.073281397777826" class="icon-icon-0" data-fill-palette-color="accent" id="icon-0"></svg></g></svg></g></svg></g><defs></defs><mask id="481fd734-65db-49e9-b5d4-b4c1d8416307"><g id="SvgjsG3480"><svg viewBox="0 0 395.52 49.62378881932338" height="49.62378881932338" width="395.52"><g><svg viewBox="0 0 461.11278798901424 57.85336674013015" height="49.62378881932338" width="395.52"><g transform="matrix(1,0,0,1,65.59278798901427,10.882692046854665)"><svg viewBox="0 0 395.52 36.08798264642082" height="36.08798264642082" width="395.52"><g id="SvgjsG3479"><svg viewBox="0 0 395.52 36.08798264642082" height="36.08798264642082" width="395.52" id="SvgjsSvg3478"><g><svg viewBox="0 0 395.52 36.08798264642082" height="36.08798264642082" width="395.52"><g transform="matrix(1,0,0,1,0,0)"><svg width="395.52" viewBox="2.2 -33.25 368.76 33.65" height="36.08798264642082" data-palette-color="url(#0927a55c-f6f2-4c69-ba57-413ae8d67396)"><path d="M16.05-3.6L16.05-3.6Q18.1-3.6 20.38-4.08 22.65-4.55 24.6-5.35L24.6-5.35 24.6-1.55Q21.85-0.45 19.73-0.03 17.6 0.4 15.3 0.4L15.3 0.4Q8.1 0.4 5.15-3.33 2.2-7.05 2.2-15.75L2.2-15.75Q2.2-24.1 5.63-27.98 9.05-31.85 16.55-31.85L16.55-31.85Q18.85-31.85 20.65-31.75 22.45-31.65 23.9-31.4L23.9-31.4 23.9-27.65Q22.15-27.85 20.38-27.93 18.6-28 16.55-28L16.55-28Q10.95-28 8.75-25.23 6.55-22.45 6.55-15.75L6.55-15.75Q6.55-8.95 8.55-6.28 10.55-3.6 16.05-3.6ZM47.75-4.8L47.75-4.8 47.75-1.35Q46.45-0.65 43.92-0.13 41.4 0.4 38.8 0.4L38.8 0.4Q33 0.4 30.5-2.6 28-5.6 28-12.5L28-12.5Q28-19.15 30.6-22.18 33.2-25.2 38.9-25.2L38.9-25.2Q44.2-25.2 46.5-22.83 48.8-20.45 48.8-14.9L48.8-14.9Q48.8-13.9 48.75-13.05 48.7-12.2 48.55-11L48.55-11 32.15-11Q32.2-6.9 33.82-5.15 35.45-3.4 39.45-3.4L39.45-3.4Q41.6-3.4 43.95-3.8 46.3-4.2 47.75-4.8ZM45.05-15.45L45.05-15.45Q45-18.75 43.6-20.13 42.2-21.5 38.9-21.5L38.9-21.5Q35.2-21.5 33.67-19.93 32.15-18.35 32.15-14.4L32.15-14.4 45-14.4Q45-14.5 45.02-14.88 45.05-15.25 45.05-15.45ZM54.09-33.25L58.2-33.25 58.2 0 54.09 0 54.09-33.25ZM83.34-4.8L83.34-4.8 83.34-1.35Q82.04-0.65 79.52-0.13 76.99 0.4 74.39 0.4L74.39 0.4Q68.59 0.4 66.09-2.6 63.59-5.6 63.59-12.5L63.59-12.5Q63.59-19.15 66.19-22.18 68.79-25.2 74.49-25.2L74.49-25.2Q79.79-25.2 82.09-22.83 84.39-20.45 84.39-14.9L84.39-14.9Q84.39-13.9 84.34-13.05 84.29-12.2 84.14-11L84.14-11 67.74-11Q67.79-6.9 69.42-5.15 71.04-3.4 75.04-3.4L75.04-3.4Q77.19-3.4 79.54-3.8 81.89-4.2 83.34-4.8ZM80.64-15.45L80.64-15.45Q80.59-18.75 79.19-20.13 77.79-21.5 74.49-21.5L74.49-21.5Q70.79-21.5 69.27-19.93 67.74-18.35 67.74-14.4L67.74-14.4 80.59-14.4Q80.59-14.5 80.62-14.88 80.64-15.25 80.64-15.45ZM101.89-25.2L101.89-25.2Q106.94-25.2 109.12-22.23 111.29-19.25 111.29-12.5L111.29-12.5Q111.29-5.6 108.59-2.6 105.89 0.4 99.54 0.4L99.54 0.4Q96.69 0.4 94.19 0.08 91.69-0.25 89.64-0.9L89.64-0.9 89.64-33.25 93.74-33.25 93.74-23Q95.49-24.05 97.59-24.63 99.69-25.2 101.89-25.2ZM107.19-12.5L107.19-12.5Q107.19-17.55 105.77-19.53 104.34-21.5 100.44-21.5L100.44-21.5Q98.64-21.5 96.89-21.03 95.14-20.55 93.74-19.7L93.74-19.7 93.74-4.05Q94.84-3.75 96.24-3.58 97.64-3.4 99.29-3.4L99.29-3.4Q103.94-3.4 105.57-5.35 107.19-7.3 107.19-12.5ZM120.79-19.35L120.79 0 116.69 0 116.69-24.7 120.44-24.7 120.64-22.6 120.84-22.6Q122.79-23.75 124.74-24.33 126.69-24.9 128.59-24.9L128.59-24.9Q129.39-24.9 129.66-24.9 129.94-24.9 130.09-24.85L130.09-24.85 130.09-20.9Q129.74-21 129.21-21.03 128.69-21.05 127.59-21.05L127.59-21.05Q125.79-21.05 124.06-20.63 122.34-20.2 120.79-19.35L120.79-19.35ZM139.29 0.4L139.29 0.4Q135.49 0.4 133.71-1.43 131.94-3.25 131.94-7.2L131.94-7.2Q131.94-11.2 134.09-12.88 136.24-14.55 141.39-14.55L141.39-14.55Q143.09-14.55 144.74-14.4 146.39-14.25 147.84-13.95L147.84-13.95 147.84-16.35Q147.84-19.1 146.44-20.3 145.04-21.5 141.94-21.5L141.94-21.5Q139.64-21.5 137.89-21.33 136.14-21.15 134.39-20.75L134.39-20.75 134.39-24.3Q136.39-24.8 138.46-25 140.54-25.2 143.19-25.2L143.19-25.2Q147.64-25.2 149.79-23.13 151.94-21.05 151.94-16.7L151.94-16.7 151.94 0 148.19 0 147.99-2.3 147.89-2.3Q146.39-1.1 144.01-0.35 141.64 0.4 139.29 0.4ZM141.84-11.2L141.84-11.2Q138.44-11.2 137.11-10.38 135.79-9.55 135.79-7.45L135.79-7.45Q135.79-5.25 136.89-4.28 137.99-3.3 140.49-3.3L140.49-3.3Q142.44-3.3 144.49-3.9 146.54-4.5 147.84-5.4L147.84-5.4 147.84-10.7Q146.19-10.95 144.76-11.08 143.34-11.2 141.84-11.2ZM172.53-3.85L172.53-3.85 172.53-0.4Q171.73-0.05 170.36 0.18 168.98 0.4 167.73 0.4L167.73 0.4Q163.23 0.4 161.31-1.6 159.38-3.6 159.38-8.5L159.38-8.5 159.38-21.2 155.68-21.2 155.68-24.7 159.43-24.7 160.08-30.7 163.48-30.7 163.48-24.7 172.28-24.7 172.28-21.2 163.48-21.2 163.48-8.65Q163.48-5.6 164.61-4.5 165.73-3.4 168.58-3.4L168.58-3.4Q169.48-3.4 170.66-3.55 171.83-3.7 172.53-3.85ZM194.83-4.8L194.83-4.8 194.83-1.35Q193.53-0.65 191.01-0.13 188.48 0.4 185.88 0.4L185.88 0.4Q180.08 0.4 177.58-2.6 175.08-5.6 175.08-12.5L175.08-12.5Q175.08-19.15 177.68-22.18 180.28-25.2 185.98-25.2L185.98-25.2Q191.28-25.2 193.58-22.83 195.88-20.45 195.88-14.9L195.88-14.9Q195.88-13.9 195.83-13.05 195.78-12.2 195.63-11L195.63-11 179.23-11Q179.28-6.9 180.91-5.15 182.53-3.4 186.53-3.4L186.53-3.4Q188.68-3.4 191.03-3.8 193.38-4.2 194.83-4.8ZM192.13-15.45L192.13-15.45Q192.08-18.75 190.68-20.13 189.28-21.5 185.98-21.5L185.98-21.5Q182.28-21.5 180.76-19.93 179.23-18.35 179.23-14.4L179.23-14.4 192.08-14.4Q192.08-14.5 192.11-14.88 192.13-15.25 192.13-15.45ZM213.93-3.6L213.93-3.6Q215.98-3.6 218.25-4.08 220.53-4.55 222.48-5.35L222.48-5.35 222.48-1.55Q219.73-0.45 217.6-0.03 215.48 0.4 213.18 0.4L213.18 0.4Q205.98 0.4 203.03-3.33 200.08-7.05 200.08-15.75L200.08-15.75Q200.08-24.1 203.5-27.98 206.93-31.85 214.43-31.85L214.43-31.85Q216.73-31.85 218.53-31.75 220.33-31.65 221.78-31.4L221.78-31.4 221.78-27.65Q220.03-27.85 218.25-27.93 216.48-28 214.43-28L214.43-28Q208.83-28 206.63-25.23 204.43-22.45 204.43-15.75L204.43-15.75Q204.43-8.95 206.43-6.28 208.43-3.6 213.93-3.6ZM248.78-12.4L248.78-12.4Q248.78-5.4 246.2-2.5 243.63 0.4 237.38 0.4L237.38 0.4Q230.93 0.4 228.43-2.4 225.93-5.2 225.93-12.4L225.93-12.4Q225.93-19.45 228.5-22.33 231.08-25.2 237.38-25.2L237.38-25.2Q243.83-25.2 246.3-22.4 248.78-19.6 248.78-12.4ZM230.03-12.45L230.03-12.45Q230.03-6.95 231.48-5.18 232.93-3.4 237.38-3.4L237.38-3.4Q241.68-3.4 243.18-5.28 244.68-7.15 244.68-12.45L244.68-12.45Q244.68-17.95 243.25-19.73 241.83-21.5 237.38-21.5L237.38-21.5Q233.03-21.5 231.53-19.65 230.03-17.8 230.03-12.45ZM258.32-19.25L258.32 0 254.22 0 254.22-24.7 257.77-24.7 257.97-22.3 258.12-22.3Q260.12-23.8 262.3-24.5 264.47-25.2 267.17-25.2L267.17-25.2Q271.27-25.2 273.4-23.15 275.52-21.1 275.52-17.1L275.52-17.1 275.52 0 271.42 0 271.42-16.6Q271.42-19.1 270.02-20.3 268.62-21.5 265.72-21.5L265.72-21.5Q263.92-21.5 262.05-20.93 260.17-20.35 258.32-19.25L258.32-19.25ZM286.02-19.25L286.02 0 281.92 0 281.92-24.7 285.47-24.7 285.67-22.3 285.82-22.3Q287.82-23.8 290-24.5 292.17-25.2 294.87-25.2L294.87-25.2Q298.97-25.2 301.1-23.15 303.22-21.1 303.22-17.1L303.22-17.1 303.22 0 299.12 0 299.12-16.6Q299.12-19.1 297.72-20.3 296.32-21.5 293.42-21.5L293.42-21.5Q291.62-21.5 289.75-20.93 287.87-20.35 286.02-19.25L286.02-19.25ZM328.17-4.8L328.17-4.8 328.17-1.35Q326.87-0.65 324.34-0.13 321.82 0.4 319.22 0.4L319.22 0.4Q313.42 0.4 310.92-2.6 308.42-5.6 308.42-12.5L308.42-12.5Q308.42-19.15 311.02-22.18 313.62-25.2 319.32-25.2L319.32-25.2Q324.62-25.2 326.92-22.83 329.22-20.45 329.22-14.9L329.22-14.9Q329.22-13.9 329.17-13.05 329.12-12.2 328.97-11L328.97-11 312.57-11Q312.62-6.9 314.24-5.15 315.87-3.4 319.87-3.4L319.87-3.4Q322.02-3.4 324.37-3.8 326.72-4.2 328.17-4.8ZM325.47-15.45L325.47-15.45Q325.42-18.75 324.02-20.13 322.62-21.5 319.32-21.5L319.32-21.5Q315.62-21.5 314.09-19.93 312.57-18.35 312.57-14.4L312.57-14.4 325.42-14.4Q325.42-14.5 325.44-14.88 325.47-15.25 325.47-15.45ZM351.77-4.9L351.77-4.9 351.77-1.45Q350.52-0.65 348.04-0.13 345.57 0.4 342.87 0.4L342.87 0.4Q337.62 0.4 335.49-2.45 333.37-5.3 333.37-12.4L333.37-12.4Q333.37-19.35 336.12-22.28 338.87-25.2 345.47-25.2L345.47-25.2Q346.92-25.2 348.09-25.13 349.27-25.05 351.12-24.8L351.12-24.8 351.12-21.15Q349.27-21.4 348.09-21.45 346.92-21.5 345.47-21.5L345.47-21.5Q340.77-21.5 339.12-19.58 337.47-17.65 337.47-12.4L337.47-12.4Q337.47-7.15 338.77-5.28 340.07-3.4 343.77-3.4L343.77-3.4Q345.82-3.4 348.02-3.83 350.22-4.25 351.77-4.9ZM370.96-3.85L370.96-3.85 370.96-0.4Q370.16-0.05 368.79 0.18 367.41 0.4 366.16 0.4L366.16 0.4Q361.66 0.4 359.74-1.6 357.81-3.6 357.81-8.5L357.81-8.5 357.81-21.2 354.11-21.2 354.11-24.7 357.86-24.7 358.51-30.7 361.91-30.7 361.91-24.7 370.71-24.7 370.71-21.2 361.91-21.2 361.91-8.65Q361.91-5.6 363.04-4.5 364.16-3.4 367.01-3.4L367.01-3.4Q367.91-3.4 369.09-3.55 370.26-3.7 370.96-3.85Z" opacity="1" transform="matrix(1,0,0,1,0,0)" fill="white" class="wordmark-text-0" id="SvgjsPath3477"></path></svg></g></svg></g></svg></g></svg></g><g><svg viewBox="0 0 57.073281397777826 57.85336674013015" height="57.85336674013015" width="57.073281397777826"><g><svg xmlns="http://www.w3.org/2000/svg" data-name="Layer 1" viewBox="2 1.1800000000000002 60.000024348596575 60.82011281011169" x="0" y="0" height="57.85336674013015" width="57.073281397777826" class="icon-icon-0" data-fill-palette-color="accent" id="SvgjsSvg3476"><path d="M61.52 32.15a1 1 0 0 0-1 0L54 35.49A4.89 4.89 0 0 0 54 35a5 5 0 0 0-10 0 5 5 0 0 0 0.08 0.79L38 32.41v-0.83l6.5-3.71A1 1 0 0 0 45 27V22a1 1 0 0 0-1.46-0.89L37 24.49A4.89 4.89 0 0 0 37 24a5 5 0 0 0-10 0 5 5 0 0 0 0.08 0.79l-6.59-3.66A1 1 0 0 0 19 22v5a1 1 0 0 0 0.5 0.87L26 31.58v0.81l-6 3.1A4.89 4.89 0 0 0 20 35a5 5 0 0 0-10 0 5 5 0 0 0 0.08 0.79L3.49 32.13A1 1 0 0 0 2 33v5a1 1 0 0 0 0.55 0.89L10 42.62v6.15L4.11 60.55A1 1 0 0 0 5 62h5a1 1 0 0 0 0.89-0.55l4-8 3.17 7.93A1 1 0 0 0 19 62h5a1 1 0 0 0 0.92-1.38L20 48.8V42.62l5-2.52-4 9.52A1 1 0 0 0 22 51h5a1 1 0 0 0 0.89-0.55l4-8 3.17 7.93A1 1 0 0 0 36 51h5a1 1 0 0 0 0.95-1.32L38.71 40 44 42.62v6.15L38.11 60.55A1 1 0 0 0 39 62h5a1 1 0 0 0 0.89-0.55l4-8 3.17 7.93A1 1 0 0 0 53 62h5a1 1 0 0 0 0.92-1.38L54 48.8V42.62l7.45-3.72A1 1 0 0 0 62 38V33A1 1 0 0 0 61.52 32.15ZM49 32a3 3 0 0 1 2.26 4.95h0a3.06 3.06 0 0 1-1 0.75l0 0a2.89 2.89 0 0 1-0.49 0.17l-0.1 0A3 3 0 0 1 49 38a2.9 2.9 0 0 1-0.63-0.07l-0.09 0A3.06 3.06 0 0 1 47 37.25h0A3 3 0 0 1 49 32ZM32 21a3 3 0 0 1 3 3 3 3 0 0 1-0.74 1.95h0a3.06 3.06 0 0 1-1 0.75l0 0a2.89 2.89 0 0 1-0.49 0.17l-0.11 0A3 3 0 0 1 32 27a2.9 2.9 0 0 1-0.63-0.07l-0.09 0A3.06 3.06 0 0 1 30 26.25h0A3 3 0 0 1 32 21ZM15 32a3 3 0 0 1 2.26 4.95h0a3.06 3.06 0 0 1-1 0.75l0 0a2.89 2.89 0 0 1-0.49 0.17l-0.1 0A3 3 0 0 1 15 38a2.9 2.9 0 0 1-0.63-0.07l-0.09 0A3.06 3.06 0 0 1 13 37.25h0A3 3 0 0 1 15 32Zm3.55 9.11A1 1 0 0 0 18 42v7a1 1 0 0 0 0.08 0.38L22.5 60H19.68l-3.75-9.37A1 1 0 0 0 15 50a1 1 0 0 0-0.94 0.55L9.38 60H6.62l5.28-10.55A1 1 0 0 0 12 49V42a1 1 0 0 0-0.55-0.89L4 37.38V34.7l7.51 4.17A1 1 0 0 0 12 39h0a5 5 0 0 0 0.51 0.32l0.26 0.14 0.47 0.2 0.43 0.13 0.38 0.1A4.86 4.86 0 0 0 15 40a5 5 0 0 0 3.63-1.58L26 34.64v2.75ZM36.68 49l-3.75-9.37A1 1 0 0 0 32 39a1 1 0 0 0-0.94 0.55L26.38 49H23.5l4.42-10.62s0 0 0 0A1 1 0 0 0 28 38V31a1 1 0 0 0-0.5-0.87L21 26.42V23.7l7.51 4.17A1 1 0 0 0 29 28h0a5 5 0 0 0 0.51 0.33l0.26 0.14 0.47 0.2 0.43 0.13 0.39 0.1A4.85 4.85 0 0 0 32 29a5 5 0 0 0 3.63-1.58L43 23.64v2.78l-6.5 3.71A1 1 0 0 0 36 31v7a1 1 0 0 0 0 0.3v0L39.61 49ZM60 37.38l-7.45 3.72A1 1 0 0 0 52 42v7a1 1 0 0 0 0.08 0.38L56.5 60H53.68l-3.75-9.37A1 1 0 0 0 49 50a1 1 0 0 0-0.94 0.55L43.38 60H40.62l5.28-10.55A1 1 0 0 0 46 49V42a1 1 0 0 0-0.55-0.89L38 37.38V34.7l7.51 4.17A1 1 0 0 0 46 39h0a5 5 0 0 0 0.51 0.32l0.26 0.14 0.47 0.2 0.43 0.13 0.38 0.1A4.86 4.86 0 0 0 49 40a5 5 0 0 0 3.63-1.58L60 34.64Z" fill="black"></path><path d="M48 6a3 3 0 1 0 3 3A3 3 0 0 0 48 6Zm0 4a1 1 0 1 1 1-1A1 1 0 0 1 48 10Z" fill="black"></path><rect x="53" y="2.39" width="2" height="7.21" transform="translate(5.74 30.96) rotate(-33.69)" fill="black"></rect><rect x="41.5" y="10.96" width="2" height="7.07" transform="translate(2.19 34.3) rotate(-45)" fill="black"></rect><path d="M30.22 5.2c-0.14-0.23-0.28-0.44-0.41-0.62-2.29-3.09-6.24-3.4-7.81-3.4v2c1 0 4.2 0.16 6 2.39A4.47 4.47 0 0 0 25.1 7.74a3.11 3.11 0 0 0 0.05 3A3 3 0 0 0 27.55 12h0.33a3.87 3.87 0 0 0 2.88-1.17 3.72 3.72 0 0 0 0.38-3.67c0.27 0 0.55 0 0.81 0a10.69 10.69 0 0 1 6.39 2.75l1.31-1.51A12.67 12.67 0 0 0 32 5.18 15.65 15.65 0 0 0 30.22 5.2Zm-1 4.33A2 2 0 0 1 27.7 10a1.13 1.13 0 0 1-0.85-0.35 1.19 1.19 0 0 1 0.05-1 3 3 0 0 1 2.19-1.25C29.45 8.27 29.58 9.14 29.24 9.52Z" fill="black"></path><rect x="55.5" y="12.5" width="5" height="2" transform="translate(3.5 37.5) rotate(-36.87)" fill="black"></rect><path d="M49 19a3 3 0 1 0 3-3A3 3 0 0 0 49 19Zm3-1a1 1 0 1 1-1 1A1 1 0 0 1 52 18Z" fill="black"></path><rect x="55" y="24" width="2" height="5" fill="black"></rect><rect x="47" y="24" width="2" height="4" fill="black"></rect><rect x="58" y="18.7" width="2" height="3.61" transform="translate(-1.46 36.17) rotate(-33.69)" fill="black"></rect><path d="M17 5a3 3 0 1 0 3 3A3 3 0 0 0 17 5Zm0 4a1 1 0 1 1 1-1A1 1 0 0 1 17 9Z" fill="black"></path><rect x="7.39" y="5" width="7.21" height="2" transform="translate(-0.09 11.82) rotate(-56.31)" fill="black"></rect><rect x="16.96" y="13.5" width="7.07" height="2" transform="translate(-4.25 18.74) rotate(-45)" fill="black"></rect><rect x="4" y="11" width="2" height="5" transform="translate(-8.8 9.4) rotate(-53.13)" fill="black"></rect><path d="M11 22a3 3 0 1 0-3-3A3 3 0 0 0 11 22Zm0-4a1 1 0 1 1-1 1A1 1 0 0 1 11 18Z" fill="black"></path><rect x="6" y="24" width="2" height="5" fill="black"></rect><rect x="14" y="24" width="2" height="4" fill="black"></rect><rect x="2.2" y="19.5" width="3.61" height="2" transform="matrix(0.55, -0.83, 0.83, 0.55, -15.28, 12.46)" fill="black"></rect><rect x="23.5" y="16.38" width="2" height="4.24" transform="translate(-5.91 22.74) rotate(-45)" fill="black"></rect><rect x="29.5" y="12.5" width="5" height="2" transform="translate(-1.7 21.9) rotate(-36.87)" fill="black"></rect><rect x="36.38" y="16.5" width="4.24" height="2" transform="translate(-1.1 32.35) rotate(-45)" fill="black"></rect><rect x="40.2" y="2.5" width="3.61" height="2" transform="translate(15.79 36.5) rotate(-56.31)" fill="black"></rect><rect x="57.38" y="3.5" width="4.24" height="2" transform="translate(14.25 43.39) rotate(-45)" fill="black"></rect><rect x="3.5" y="2.38" width="2" height="4.24" transform="translate(-1.86 4.5) rotate(-45)" fill="black"></rect></svg></g></svg></g></svg></g><defs><mask></mask></defs></svg><rect width="395.52" height="49.62378881932338" fill="black" stroke="none" visibility="hidden"></rect></g></mask><linearGradient x1="0" x2="1" y1="0.578" y2="0.595" id="0927a55c-f6f2-4c69-ba57-413ae8d67396"><stop stop-color="#6ee2f5" offset="0"></stop><stop stop-color="#6454f0" offset="1"></stop></linearGradient><rect width="395.52" height="49.62378881932338" fill="url(#0927a55c-f6f2-4c69-ba57-413ae8d67396)" mask="url(#481fd734-65db-49e9-b5d4-b4c1d8416307)" data-fill-palette-color="primary"></rect><mask id="4adbd807-c1c5-4f6f-aa1e-f312b1426316"><g id="SvgjsG3499"><svg viewBox="0 0 395.52 49.62378881932338" height="49.62378881932338" width="395.52"><g><svg viewBox="0 0 461.11278798901424 57.85336674013015" height="49.62378881932338" width="395.52"><g transform="matrix(1,0,0,1,65.59278798901427,10.882692046854665)"><svg viewBox="0 0 395.52 36.08798264642082" height="36.08798264642082" width="395.52"><g id="SvgjsG3498"><svg viewBox="0 0 395.52 36.08798264642082" height="36.08798264642082" width="395.52" id="SvgjsSvg3497"><g><svg viewBox="0 0 395.52 36.08798264642082" height="36.08798264642082" width="395.52"><g transform="matrix(1,0,0,1,0,0)"><svg width="395.52" viewBox="2.2 -33.25 368.76 33.65" height="36.08798264642082" data-palette-color="url(#0927a55c-f6f2-4c69-ba57-413ae8d67396)"></svg></g></svg></g></svg></g></svg></g><g><svg viewBox="0 0 57.073281397777826 57.85336674013015" height="57.85336674013015" width="57.073281397777826"><g><svg xmlns="http://www.w3.org/2000/svg" data-name="Layer 1" viewBox="2 1.1800000000000002 60.000024348596575 60.82011281011169" x="0" y="0" height="57.85336674013015" width="57.073281397777826" class="icon-icon-0" data-fill-palette-color="accent" id="SvgjsSvg3496"><path d="M61.52 32.15a1 1 0 0 0-1 0L54 35.49A4.89 4.89 0 0 0 54 35a5 5 0 0 0-10 0 5 5 0 0 0 0.08 0.79L38 32.41v-0.83l6.5-3.71A1 1 0 0 0 45 27V22a1 1 0 0 0-1.46-0.89L37 24.49A4.89 4.89 0 0 0 37 24a5 5 0 0 0-10 0 5 5 0 0 0 0.08 0.79l-6.59-3.66A1 1 0 0 0 19 22v5a1 1 0 0 0 0.5 0.87L26 31.58v0.81l-6 3.1A4.89 4.89 0 0 0 20 35a5 5 0 0 0-10 0 5 5 0 0 0 0.08 0.79L3.49 32.13A1 1 0 0 0 2 33v5a1 1 0 0 0 0.55 0.89L10 42.62v6.15L4.11 60.55A1 1 0 0 0 5 62h5a1 1 0 0 0 0.89-0.55l4-8 3.17 7.93A1 1 0 0 0 19 62h5a1 1 0 0 0 0.92-1.38L20 48.8V42.62l5-2.52-4 9.52A1 1 0 0 0 22 51h5a1 1 0 0 0 0.89-0.55l4-8 3.17 7.93A1 1 0 0 0 36 51h5a1 1 0 0 0 0.95-1.32L38.71 40 44 42.62v6.15L38.11 60.55A1 1 0 0 0 39 62h5a1 1 0 0 0 0.89-0.55l4-8 3.17 7.93A1 1 0 0 0 53 62h5a1 1 0 0 0 0.92-1.38L54 48.8V42.62l7.45-3.72A1 1 0 0 0 62 38V33A1 1 0 0 0 61.52 32.15ZM49 32a3 3 0 0 1 2.26 4.95h0a3.06 3.06 0 0 1-1 0.75l0 0a2.89 2.89 0 0 1-0.49 0.17l-0.1 0A3 3 0 0 1 49 38a2.9 2.9 0 0 1-0.63-0.07l-0.09 0A3.06 3.06 0 0 1 47 37.25h0A3 3 0 0 1 49 32ZM32 21a3 3 0 0 1 3 3 3 3 0 0 1-0.74 1.95h0a3.06 3.06 0 0 1-1 0.75l0 0a2.89 2.89 0 0 1-0.49 0.17l-0.11 0A3 3 0 0 1 32 27a2.9 2.9 0 0 1-0.63-0.07l-0.09 0A3.06 3.06 0 0 1 30 26.25h0A3 3 0 0 1 32 21ZM15 32a3 3 0 0 1 2.26 4.95h0a3.06 3.06 0 0 1-1 0.75l0 0a2.89 2.89 0 0 1-0.49 0.17l-0.1 0A3 3 0 0 1 15 38a2.9 2.9 0 0 1-0.63-0.07l-0.09 0A3.06 3.06 0 0 1 13 37.25h0A3 3 0 0 1 15 32Zm3.55 9.11A1 1 0 0 0 18 42v7a1 1 0 0 0 0.08 0.38L22.5 60H19.68l-3.75-9.37A1 1 0 0 0 15 50a1 1 0 0 0-0.94 0.55L9.38 60H6.62l5.28-10.55A1 1 0 0 0 12 49V42a1 1 0 0 0-0.55-0.89L4 37.38V34.7l7.51 4.17A1 1 0 0 0 12 39h0a5 5 0 0 0 0.51 0.32l0.26 0.14 0.47 0.2 0.43 0.13 0.38 0.1A4.86 4.86 0 0 0 15 40a5 5 0 0 0 3.63-1.58L26 34.64v2.75ZM36.68 49l-3.75-9.37A1 1 0 0 0 32 39a1 1 0 0 0-0.94 0.55L26.38 49H23.5l4.42-10.62s0 0 0 0A1 1 0 0 0 28 38V31a1 1 0 0 0-0.5-0.87L21 26.42V23.7l7.51 4.17A1 1 0 0 0 29 28h0a5 5 0 0 0 0.51 0.33l0.26 0.14 0.47 0.2 0.43 0.13 0.39 0.1A4.85 4.85 0 0 0 32 29a5 5 0 0 0 3.63-1.58L43 23.64v2.78l-6.5 3.71A1 1 0 0 0 36 31v7a1 1 0 0 0 0 0.3v0L39.61 49ZM60 37.38l-7.45 3.72A1 1 0 0 0 52 42v7a1 1 0 0 0 0.08 0.38L56.5 60H53.68l-3.75-9.37A1 1 0 0 0 49 50a1 1 0 0 0-0.94 0.55L43.38 60H40.62l5.28-10.55A1 1 0 0 0 46 49V42a1 1 0 0 0-0.55-0.89L38 37.38V34.7l7.51 4.17A1 1 0 0 0 46 39h0a5 5 0 0 0 0.51 0.32l0.26 0.14 0.47 0.2 0.43 0.13 0.38 0.1A4.86 4.86 0 0 0 49 40a5 5 0 0 0 3.63-1.58L60 34.64Z" fill="white"></path><path d="M48 6a3 3 0 1 0 3 3A3 3 0 0 0 48 6Zm0 4a1 1 0 1 1 1-1A1 1 0 0 1 48 10Z" fill="white"></path><rect x="53" y="2.39" width="2" height="7.21" transform="translate(5.74 30.96) rotate(-33.69)" fill="white"></rect><rect x="41.5" y="10.96" width="2" height="7.07" transform="translate(2.19 34.3) rotate(-45)" fill="white"></rect><path d="M30.22 5.2c-0.14-0.23-0.28-0.44-0.41-0.62-2.29-3.09-6.24-3.4-7.81-3.4v2c1 0 4.2 0.16 6 2.39A4.47 4.47 0 0 0 25.1 7.74a3.11 3.11 0 0 0 0.05 3A3 3 0 0 0 27.55 12h0.33a3.87 3.87 0 0 0 2.88-1.17 3.72 3.72 0 0 0 0.38-3.67c0.27 0 0.55 0 0.81 0a10.69 10.69 0 0 1 6.39 2.75l1.31-1.51A12.67 12.67 0 0 0 32 5.18 15.65 15.65 0 0 0 30.22 5.2Zm-1 4.33A2 2 0 0 1 27.7 10a1.13 1.13 0 0 1-0.85-0.35 1.19 1.19 0 0 1 0.05-1 3 3 0 0 1 2.19-1.25C29.45 8.27 29.58 9.14 29.24 9.52Z" fill="white"></path><rect x="55.5" y="12.5" width="5" height="2" transform="translate(3.5 37.5) rotate(-36.87)" fill="white"></rect><path d="M49 19a3 3 0 1 0 3-3A3 3 0 0 0 49 19Zm3-1a1 1 0 1 1-1 1A1 1 0 0 1 52 18Z" fill="white"></path><rect x="55" y="24" width="2" height="5" fill="white"></rect><rect x="47" y="24" width="2" height="4" fill="white"></rect><rect x="58" y="18.7" width="2" height="3.61" transform="translate(-1.46 36.17) rotate(-33.69)" fill="white"></rect><path d="M17 5a3 3 0 1 0 3 3A3 3 0 0 0 17 5Zm0 4a1 1 0 1 1 1-1A1 1 0 0 1 17 9Z" fill="white"></path><rect x="7.39" y="5" width="7.21" height="2" transform="translate(-0.09 11.82) rotate(-56.31)" fill="white"></rect><rect x="16.96" y="13.5" width="7.07" height="2" transform="translate(-4.25 18.74) rotate(-45)" fill="white"></rect><rect x="4" y="11" width="2" height="5" transform="translate(-8.8 9.4) rotate(-53.13)" fill="white"></rect><path d="M11 22a3 3 0 1 0-3-3A3 3 0 0 0 11 22Zm0-4a1 1 0 1 1-1 1A1 1 0 0 1 11 18Z" fill="white"></path><rect x="6" y="24" width="2" height="5" fill="white"></rect><rect x="14" y="24" width="2" height="4" fill="white"></rect><rect x="2.2" y="19.5" width="3.61" height="2" transform="matrix(0.55, -0.83, 0.83, 0.55, -15.28, 12.46)" fill="white"></rect><rect x="23.5" y="16.38" width="2" height="4.24" transform="translate(-5.91 22.74) rotate(-45)" fill="white"></rect><rect x="29.5" y="12.5" width="5" height="2" transform="translate(-1.7 21.9) rotate(-36.87)" fill="white"></rect><rect x="36.38" y="16.5" width="4.24" height="2" transform="translate(-1.1 32.35) rotate(-45)" fill="white"></rect><rect x="40.2" y="2.5" width="3.61" height="2" transform="translate(15.79 36.5) rotate(-56.31)" fill="white"></rect><rect x="57.38" y="3.5" width="4.24" height="2" transform="translate(14.25 43.39) rotate(-45)" fill="white"></rect><rect x="3.5" y="2.38" width="2" height="4.24" transform="translate(-1.86 4.5) rotate(-45)" fill="white"></rect></svg></g></svg></g></svg></g><defs><mask></mask></defs><mask><g id="SvgjsG3495"><svg viewBox="0 0 395.52 49.62378881932338" height="49.62378881932338" width="395.52"><g><svg viewBox="0 0 461.11278798901424 57.85336674013015" height="49.62378881932338" width="395.52"><g transform="matrix(1,0,0,1,65.59278798901427,10.882692046854665)"><svg viewBox="0 0 395.52 36.08798264642082" height="36.08798264642082" width="395.52"><g id="SvgjsG3494"><svg viewBox="0 0 395.52 36.08798264642082" height="36.08798264642082" width="395.52" id="SvgjsSvg3493"><g><svg viewBox="0 0 395.52 36.08798264642082" height="36.08798264642082" width="395.52"><g transform="matrix(1,0,0,1,0,0)"><svg width="395.52" viewBox="2.2 -33.25 368.76 33.65" height="36.08798264642082" data-palette-color="url(#0927a55c-f6f2-4c69-ba57-413ae8d67396)"><path d="M16.05-3.6L16.05-3.6Q18.1-3.6 20.38-4.08 22.65-4.55 24.6-5.35L24.6-5.35 24.6-1.55Q21.85-0.45 19.73-0.03 17.6 0.4 15.3 0.4L15.3 0.4Q8.1 0.4 5.15-3.33 2.2-7.05 2.2-15.75L2.2-15.75Q2.2-24.1 5.63-27.98 9.05-31.85 16.55-31.85L16.55-31.85Q18.85-31.85 20.65-31.75 22.45-31.65 23.9-31.4L23.9-31.4 23.9-27.65Q22.15-27.85 20.38-27.93 18.6-28 16.55-28L16.55-28Q10.95-28 8.75-25.23 6.55-22.45 6.55-15.75L6.55-15.75Q6.55-8.95 8.55-6.28 10.55-3.6 16.05-3.6ZM47.75-4.8L47.75-4.8 47.75-1.35Q46.45-0.65 43.92-0.13 41.4 0.4 38.8 0.4L38.8 0.4Q33 0.4 30.5-2.6 28-5.6 28-12.5L28-12.5Q28-19.15 30.6-22.18 33.2-25.2 38.9-25.2L38.9-25.2Q44.2-25.2 46.5-22.83 48.8-20.45 48.8-14.9L48.8-14.9Q48.8-13.9 48.75-13.05 48.7-12.2 48.55-11L48.55-11 32.15-11Q32.2-6.9 33.82-5.15 35.45-3.4 39.45-3.4L39.45-3.4Q41.6-3.4 43.95-3.8 46.3-4.2 47.75-4.8ZM45.05-15.45L45.05-15.45Q45-18.75 43.6-20.13 42.2-21.5 38.9-21.5L38.9-21.5Q35.2-21.5 33.67-19.93 32.15-18.35 32.15-14.4L32.15-14.4 45-14.4Q45-14.5 45.02-14.88 45.05-15.25 45.05-15.45ZM54.09-33.25L58.2-33.25 58.2 0 54.09 0 54.09-33.25ZM83.34-4.8L83.34-4.8 83.34-1.35Q82.04-0.65 79.52-0.13 76.99 0.4 74.39 0.4L74.39 0.4Q68.59 0.4 66.09-2.6 63.59-5.6 63.59-12.5L63.59-12.5Q63.59-19.15 66.19-22.18 68.79-25.2 74.49-25.2L74.49-25.2Q79.79-25.2 82.09-22.83 84.39-20.45 84.39-14.9L84.39-14.9Q84.39-13.9 84.34-13.05 84.29-12.2 84.14-11L84.14-11 67.74-11Q67.79-6.9 69.42-5.15 71.04-3.4 75.04-3.4L75.04-3.4Q77.19-3.4 79.54-3.8 81.89-4.2 83.34-4.8ZM80.64-15.45L80.64-15.45Q80.59-18.75 79.19-20.13 77.79-21.5 74.49-21.5L74.49-21.5Q70.79-21.5 69.27-19.93 67.74-18.35 67.74-14.4L67.74-14.4 80.59-14.4Q80.59-14.5 80.62-14.88 80.64-15.25 80.64-15.45ZM101.89-25.2L101.89-25.2Q106.94-25.2 109.12-22.23 111.29-19.25 111.29-12.5L111.29-12.5Q111.29-5.6 108.59-2.6 105.89 0.4 99.54 0.4L99.54 0.4Q96.69 0.4 94.19 0.08 91.69-0.25 89.64-0.9L89.64-0.9 89.64-33.25 93.74-33.25 93.74-23Q95.49-24.05 97.59-24.63 99.69-25.2 101.89-25.2ZM107.19-12.5L107.19-12.5Q107.19-17.55 105.77-19.53 104.34-21.5 100.44-21.5L100.44-21.5Q98.64-21.5 96.89-21.03 95.14-20.55 93.74-19.7L93.74-19.7 93.74-4.05Q94.84-3.75 96.24-3.58 97.64-3.4 99.29-3.4L99.29-3.4Q103.94-3.4 105.57-5.35 107.19-7.3 107.19-12.5ZM120.79-19.35L120.79 0 116.69 0 116.69-24.7 120.44-24.7 120.64-22.6 120.84-22.6Q122.79-23.75 124.74-24.33 126.69-24.9 128.59-24.9L128.59-24.9Q129.39-24.9 129.66-24.9 129.94-24.9 130.09-24.85L130.09-24.85 130.09-20.9Q129.74-21 129.21-21.03 128.69-21.05 127.59-21.05L127.59-21.05Q125.79-21.05 124.06-20.63 122.34-20.2 120.79-19.35L120.79-19.35ZM139.29 0.4L139.29 0.4Q135.49 0.4 133.71-1.43 131.94-3.25 131.94-7.2L131.94-7.2Q131.94-11.2 134.09-12.88 136.24-14.55 141.39-14.55L141.39-14.55Q143.09-14.55 144.74-14.4 146.39-14.25 147.84-13.95L147.84-13.95 147.84-16.35Q147.84-19.1 146.44-20.3 145.04-21.5 141.94-21.5L141.94-21.5Q139.64-21.5 137.89-21.33 136.14-21.15 134.39-20.75L134.39-20.75 134.39-24.3Q136.39-24.8 138.46-25 140.54-25.2 143.19-25.2L143.19-25.2Q147.64-25.2 149.79-23.13 151.94-21.05 151.94-16.7L151.94-16.7 151.94 0 148.19 0 147.99-2.3 147.89-2.3Q146.39-1.1 144.01-0.35 141.64 0.4 139.29 0.4ZM141.84-11.2L141.84-11.2Q138.44-11.2 137.11-10.38 135.79-9.55 135.79-7.45L135.79-7.45Q135.79-5.25 136.89-4.28 137.99-3.3 140.49-3.3L140.49-3.3Q142.44-3.3 144.49-3.9 146.54-4.5 147.84-5.4L147.84-5.4 147.84-10.7Q146.19-10.95 144.76-11.08 143.34-11.2 141.84-11.2ZM172.53-3.85L172.53-3.85 172.53-0.4Q171.73-0.05 170.36 0.18 168.98 0.4 167.73 0.4L167.73 0.4Q163.23 0.4 161.31-1.6 159.38-3.6 159.38-8.5L159.38-8.5 159.38-21.2 155.68-21.2 155.68-24.7 159.43-24.7 160.08-30.7 163.48-30.7 163.48-24.7 172.28-24.7 172.28-21.2 163.48-21.2 163.48-8.65Q163.48-5.6 164.61-4.5 165.73-3.4 168.58-3.4L168.58-3.4Q169.48-3.4 170.66-3.55 171.83-3.7 172.53-3.85ZM194.83-4.8L194.83-4.8 194.83-1.35Q193.53-0.65 191.01-0.13 188.48 0.4 185.88 0.4L185.88 0.4Q180.08 0.4 177.58-2.6 175.08-5.6 175.08-12.5L175.08-12.5Q175.08-19.15 177.68-22.18 180.28-25.2 185.98-25.2L185.98-25.2Q191.28-25.2 193.58-22.83 195.88-20.45 195.88-14.9L195.88-14.9Q195.88-13.9 195.83-13.05 195.78-12.2 195.63-11L195.63-11 179.23-11Q179.28-6.9 180.91-5.15 182.53-3.4 186.53-3.4L186.53-3.4Q188.68-3.4 191.03-3.8 193.38-4.2 194.83-4.8ZM192.13-15.45L192.13-15.45Q192.08-18.75 190.68-20.13 189.28-21.5 185.98-21.5L185.98-21.5Q182.28-21.5 180.76-19.93 179.23-18.35 179.23-14.4L179.23-14.4 192.08-14.4Q192.08-14.5 192.11-14.88 192.13-15.25 192.13-15.45ZM213.93-3.6L213.93-3.6Q215.98-3.6 218.25-4.08 220.53-4.55 222.48-5.35L222.48-5.35 222.48-1.55Q219.73-0.45 217.6-0.03 215.48 0.4 213.18 0.4L213.18 0.4Q205.98 0.4 203.03-3.33 200.08-7.05 200.08-15.75L200.08-15.75Q200.08-24.1 203.5-27.98 206.93-31.85 214.43-31.85L214.43-31.85Q216.73-31.85 218.53-31.75 220.33-31.65 221.78-31.4L221.78-31.4 221.78-27.65Q220.03-27.85 218.25-27.93 216.48-28 214.43-28L214.43-28Q208.83-28 206.63-25.23 204.43-22.45 204.43-15.75L204.43-15.75Q204.43-8.95 206.43-6.28 208.43-3.6 213.93-3.6ZM248.78-12.4L248.78-12.4Q248.78-5.4 246.2-2.5 243.63 0.4 237.38 0.4L237.38 0.4Q230.93 0.4 228.43-2.4 225.93-5.2 225.93-12.4L225.93-12.4Q225.93-19.45 228.5-22.33 231.08-25.2 237.38-25.2L237.38-25.2Q243.83-25.2 246.3-22.4 248.78-19.6 248.78-12.4ZM230.03-12.45L230.03-12.45Q230.03-6.95 231.48-5.18 232.93-3.4 237.38-3.4L237.38-3.4Q241.68-3.4 243.18-5.28 244.68-7.15 244.68-12.45L244.68-12.45Q244.68-17.95 243.25-19.73 241.83-21.5 237.38-21.5L237.38-21.5Q233.03-21.5 231.53-19.65 230.03-17.8 230.03-12.45ZM258.32-19.25L258.32 0 254.22 0 254.22-24.7 257.77-24.7 257.97-22.3 258.12-22.3Q260.12-23.8 262.3-24.5 264.47-25.2 267.17-25.2L267.17-25.2Q271.27-25.2 273.4-23.15 275.52-21.1 275.52-17.1L275.52-17.1 275.52 0 271.42 0 271.42-16.6Q271.42-19.1 270.02-20.3 268.62-21.5 265.72-21.5L265.72-21.5Q263.92-21.5 262.05-20.93 260.17-20.35 258.32-19.25L258.32-19.25ZM286.02-19.25L286.02 0 281.92 0 281.92-24.7 285.47-24.7 285.67-22.3 285.82-22.3Q287.82-23.8 290-24.5 292.17-25.2 294.87-25.2L294.87-25.2Q298.97-25.2 301.1-23.15 303.22-21.1 303.22-17.1L303.22-17.1 303.22 0 299.12 0 299.12-16.6Q299.12-19.1 297.72-20.3 296.32-21.5 293.42-21.5L293.42-21.5Q291.62-21.5 289.75-20.93 287.87-20.35 286.02-19.25L286.02-19.25ZM328.17-4.8L328.17-4.8 328.17-1.35Q326.87-0.65 324.34-0.13 321.82 0.4 319.22 0.4L319.22 0.4Q313.42 0.4 310.92-2.6 308.42-5.6 308.42-12.5L308.42-12.5Q308.42-19.15 311.02-22.18 313.62-25.2 319.32-25.2L319.32-25.2Q324.62-25.2 326.92-22.83 329.22-20.45 329.22-14.9L329.22-14.9Q329.22-13.9 329.17-13.05 329.12-12.2 328.97-11L328.97-11 312.57-11Q312.62-6.9 314.24-5.15 315.87-3.4 319.87-3.4L319.87-3.4Q322.02-3.4 324.37-3.8 326.72-4.2 328.17-4.8ZM325.47-15.45L325.47-15.45Q325.42-18.75 324.02-20.13 322.62-21.5 319.32-21.5L319.32-21.5Q315.62-21.5 314.09-19.93 312.57-18.35 312.57-14.4L312.57-14.4 325.42-14.4Q325.42-14.5 325.44-14.88 325.47-15.25 325.47-15.45ZM351.77-4.9L351.77-4.9 351.77-1.45Q350.52-0.65 348.04-0.13 345.57 0.4 342.87 0.4L342.87 0.4Q337.62 0.4 335.49-2.45 333.37-5.3 333.37-12.4L333.37-12.4Q333.37-19.35 336.12-22.28 338.87-25.2 345.47-25.2L345.47-25.2Q346.92-25.2 348.09-25.13 349.27-25.05 351.12-24.8L351.12-24.8 351.12-21.15Q349.27-21.4 348.09-21.45 346.92-21.5 345.47-21.5L345.47-21.5Q340.77-21.5 339.12-19.58 337.47-17.65 337.47-12.4L337.47-12.4Q337.47-7.15 338.77-5.28 340.07-3.4 343.77-3.4L343.77-3.4Q345.82-3.4 348.02-3.83 350.22-4.25 351.77-4.9ZM370.96-3.85L370.96-3.85 370.96-0.4Q370.16-0.05 368.79 0.18 367.41 0.4 366.16 0.4L366.16 0.4Q361.66 0.4 359.74-1.6 357.81-3.6 357.81-8.5L357.81-8.5 357.81-21.2 354.11-21.2 354.11-24.7 357.86-24.7 358.51-30.7 361.91-30.7 361.91-24.7 370.71-24.7 370.71-21.2 361.91-21.2 361.91-8.65Q361.91-5.6 363.04-4.5 364.16-3.4 367.01-3.4L367.01-3.4Q367.91-3.4 369.09-3.55 370.26-3.7 370.96-3.85Z" opacity="1" transform="matrix(1,0,0,1,0,0)" fill="black" class="wordmark-text-0" id="SvgjsPath3492"></path></svg></g></svg></g></svg></g></svg></g><g><svg viewBox="0 0 57.073281397777826 57.85336674013015" height="57.85336674013015" width="57.073281397777826"><g><svg xmlns="http://www.w3.org/2000/svg" data-name="Layer 1" viewBox="2 1.1800000000000002 60.000024348596575 60.82011281011169" x="0" y="0" height="57.85336674013015" width="57.073281397777826" class="icon-icon-0" data-fill-palette-color="accent" id="SvgjsSvg3491"><path d="M61.52 32.15a1 1 0 0 0-1 0L54 35.49A4.89 4.89 0 0 0 54 35a5 5 0 0 0-10 0 5 5 0 0 0 0.08 0.79L38 32.41v-0.83l6.5-3.71A1 1 0 0 0 45 27V22a1 1 0 0 0-1.46-0.89L37 24.49A4.89 4.89 0 0 0 37 24a5 5 0 0 0-10 0 5 5 0 0 0 0.08 0.79l-6.59-3.66A1 1 0 0 0 19 22v5a1 1 0 0 0 0.5 0.87L26 31.58v0.81l-6 3.1A4.89 4.89 0 0 0 20 35a5 5 0 0 0-10 0 5 5 0 0 0 0.08 0.79L3.49 32.13A1 1 0 0 0 2 33v5a1 1 0 0 0 0.55 0.89L10 42.62v6.15L4.11 60.55A1 1 0 0 0 5 62h5a1 1 0 0 0 0.89-0.55l4-8 3.17 7.93A1 1 0 0 0 19 62h5a1 1 0 0 0 0.92-1.38L20 48.8V42.62l5-2.52-4 9.52A1 1 0 0 0 22 51h5a1 1 0 0 0 0.89-0.55l4-8 3.17 7.93A1 1 0 0 0 36 51h5a1 1 0 0 0 0.95-1.32L38.71 40 44 42.62v6.15L38.11 60.55A1 1 0 0 0 39 62h5a1 1 0 0 0 0.89-0.55l4-8 3.17 7.93A1 1 0 0 0 53 62h5a1 1 0 0 0 0.92-1.38L54 48.8V42.62l7.45-3.72A1 1 0 0 0 62 38V33A1 1 0 0 0 61.52 32.15ZM49 32a3 3 0 0 1 2.26 4.95h0a3.06 3.06 0 0 1-1 0.75l0 0a2.89 2.89 0 0 1-0.49 0.17l-0.1 0A3 3 0 0 1 49 38a2.9 2.9 0 0 1-0.63-0.07l-0.09 0A3.06 3.06 0 0 1 47 37.25h0A3 3 0 0 1 49 32ZM32 21a3 3 0 0 1 3 3 3 3 0 0 1-0.74 1.95h0a3.06 3.06 0 0 1-1 0.75l0 0a2.89 2.89 0 0 1-0.49 0.17l-0.11 0A3 3 0 0 1 32 27a2.9 2.9 0 0 1-0.63-0.07l-0.09 0A3.06 3.06 0 0 1 30 26.25h0A3 3 0 0 1 32 21ZM15 32a3 3 0 0 1 2.26 4.95h0a3.06 3.06 0 0 1-1 0.75l0 0a2.89 2.89 0 0 1-0.49 0.17l-0.1 0A3 3 0 0 1 15 38a2.9 2.9 0 0 1-0.63-0.07l-0.09 0A3.06 3.06 0 0 1 13 37.25h0A3 3 0 0 1 15 32Zm3.55 9.11A1 1 0 0 0 18 42v7a1 1 0 0 0 0.08 0.38L22.5 60H19.68l-3.75-9.37A1 1 0 0 0 15 50a1 1 0 0 0-0.94 0.55L9.38 60H6.62l5.28-10.55A1 1 0 0 0 12 49V42a1 1 0 0 0-0.55-0.89L4 37.38V34.7l7.51 4.17A1 1 0 0 0 12 39h0a5 5 0 0 0 0.51 0.32l0.26 0.14 0.47 0.2 0.43 0.13 0.38 0.1A4.86 4.86 0 0 0 15 40a5 5 0 0 0 3.63-1.58L26 34.64v2.75ZM36.68 49l-3.75-9.37A1 1 0 0 0 32 39a1 1 0 0 0-0.94 0.55L26.38 49H23.5l4.42-10.62s0 0 0 0A1 1 0 0 0 28 38V31a1 1 0 0 0-0.5-0.87L21 26.42V23.7l7.51 4.17A1 1 0 0 0 29 28h0a5 5 0 0 0 0.51 0.33l0.26 0.14 0.47 0.2 0.43 0.13 0.39 0.1A4.85 4.85 0 0 0 32 29a5 5 0 0 0 3.63-1.58L43 23.64v2.78l-6.5 3.71A1 1 0 0 0 36 31v7a1 1 0 0 0 0 0.3v0L39.61 49ZM60 37.38l-7.45 3.72A1 1 0 0 0 52 42v7a1 1 0 0 0 0.08 0.38L56.5 60H53.68l-3.75-9.37A1 1 0 0 0 49 50a1 1 0 0 0-0.94 0.55L43.38 60H40.62l5.28-10.55A1 1 0 0 0 46 49V42a1 1 0 0 0-0.55-0.89L38 37.38V34.7l7.51 4.17A1 1 0 0 0 46 39h0a5 5 0 0 0 0.51 0.32l0.26 0.14 0.47 0.2 0.43 0.13 0.38 0.1A4.86 4.86 0 0 0 49 40a5 5 0 0 0 3.63-1.58L60 34.64Z" fill="black"></path><path d="M48 6a3 3 0 1 0 3 3A3 3 0 0 0 48 6Zm0 4a1 1 0 1 1 1-1A1 1 0 0 1 48 10Z" fill="black"></path><rect x="53" y="2.39" width="2" height="7.21" transform="translate(5.74 30.96) rotate(-33.69)" fill="black"></rect><rect x="41.5" y="10.96" width="2" height="7.07" transform="translate(2.19 34.3) rotate(-45)" fill="black"></rect><path d="M30.22 5.2c-0.14-0.23-0.28-0.44-0.41-0.62-2.29-3.09-6.24-3.4-7.81-3.4v2c1 0 4.2 0.16 6 2.39A4.47 4.47 0 0 0 25.1 7.74a3.11 3.11 0 0 0 0.05 3A3 3 0 0 0 27.55 12h0.33a3.87 3.87 0 0 0 2.88-1.17 3.72 3.72 0 0 0 0.38-3.67c0.27 0 0.55 0 0.81 0a10.69 10.69 0 0 1 6.39 2.75l1.31-1.51A12.67 12.67 0 0 0 32 5.18 15.65 15.65 0 0 0 30.22 5.2Zm-1 4.33A2 2 0 0 1 27.7 10a1.13 1.13 0 0 1-0.85-0.35 1.19 1.19 0 0 1 0.05-1 3 3 0 0 1 2.19-1.25C29.45 8.27 29.58 9.14 29.24 9.52Z" fill="black"></path><rect x="55.5" y="12.5" width="5" height="2" transform="translate(3.5 37.5) rotate(-36.87)" fill="black"></rect><path d="M49 19a3 3 0 1 0 3-3A3 3 0 0 0 49 19Zm3-1a1 1 0 1 1-1 1A1 1 0 0 1 52 18Z" fill="black"></path><rect x="55" y="24" width="2" height="5" fill="black"></rect><rect x="47" y="24" width="2" height="4" fill="black"></rect><rect x="58" y="18.7" width="2" height="3.61" transform="translate(-1.46 36.17) rotate(-33.69)" fill="black"></rect><path d="M17 5a3 3 0 1 0 3 3A3 3 0 0 0 17 5Zm0 4a1 1 0 1 1 1-1A1 1 0 0 1 17 9Z" fill="black"></path><rect x="7.39" y="5" width="7.21" height="2" transform="translate(-0.09 11.82) rotate(-56.31)" fill="black"></rect><rect x="16.96" y="13.5" width="7.07" height="2" transform="translate(-4.25 18.74) rotate(-45)" fill="black"></rect><rect x="4" y="11" width="2" height="5" transform="translate(-8.8 9.4) rotate(-53.13)" fill="black"></rect><path d="M11 22a3 3 0 1 0-3-3A3 3 0 0 0 11 22Zm0-4a1 1 0 1 1-1 1A1 1 0 0 1 11 18Z" fill="black"></path><rect x="6" y="24" width="2" height="5" fill="black"></rect><rect x="14" y="24" width="2" height="4" fill="black"></rect><rect x="2.2" y="19.5" width="3.61" height="2" transform="matrix(0.55, -0.83, 0.83, 0.55, -15.28, 12.46)" fill="black"></rect><rect x="23.5" y="16.38" width="2" height="4.24" transform="translate(-5.91 22.74) rotate(-45)" fill="black"></rect><rect x="29.5" y="12.5" width="5" height="2" transform="translate(-1.7 21.9) rotate(-36.87)" fill="black"></rect><rect x="36.38" y="16.5" width="4.24" height="2" transform="translate(-1.1 32.35) rotate(-45)" fill="black"></rect><rect x="40.2" y="2.5" width="3.61" height="2" transform="translate(15.79 36.5) rotate(-56.31)" fill="black"></rect><rect x="57.38" y="3.5" width="4.24" height="2" transform="translate(14.25 43.39) rotate(-45)" fill="black"></rect><rect x="3.5" y="2.38" width="2" height="4.24" transform="translate(-1.86 4.5) rotate(-45)" fill="black"></rect></svg></g></svg></g></svg></g><defs><mask></mask></defs></svg><rect width="395.52" height="49.62378881932338" fill="black" stroke="none" visibility="hidden"></rect></g></mask></svg><rect width="395.52" height="49.62378881932338" fill="black" stroke="none" visibility="hidden"></rect></g></mask><linearGradient x1="0" x2="1" y1="0.578" y2="0.595" id="296e0c2c-0810-499f-831a-20f71092e4c1"><stop stop-color="#6ee2f5" offset="0"></stop><stop stop-color="#6454f0" offset="1"></stop></linearGradient><rect width="395.52" height="49.62378881932338" fill="url(#296e0c2c-0810-499f-831a-20f71092e4c1)" mask="url(#4adbd807-c1c5-4f6f-aa1e-f312b1426316)" data-fill-palette-color="accent"></rect></svg><rect width="395.52" height="49.62378881932338" fill="none" stroke="none" visibility="hidden"></rect></g></svg></g></svg>