<svg width="120" height="120" xmlns="http://www.w3.org/2000/svg" version="1.1"
    xmlns:xlink="http://www.w3.org/1999/xlink" xmlns:svgjs="http://svgjs.dev/svgjs" width="128" height="128"
    viewBox="0 0 128 128">
    <g transform="matrix(0.8046875,0,0,0.8046875,12.606040581982242,12.360446011513154)"><svg viewBox="0 0 94 95"
            data-background-color="#000000" preserveAspectRatio="xMidYMid meet" height="129" width="128"
            xmlns="http://www.w3.org/2000/svg" xmlns:xlink="http://www.w3.org/1999/xlink">
            <g id="tight-bounds" transform="matrix(1,0,0,1,-0.09677490006146172,-0.24049999999999727)"><svg
                    viewBox="0 0 94.19354980012292 95.481" height="95.481" width="94.19354980012292">
                    <g><svg viewBox="0 0 94.19354980012292 95.481" height="95.481" width="94.19354980012292">
                            <g><svg viewBox="0 0 94.19354980012292 95.481" height="95.481" width="94.19354980012292">
                                    <g id="textblocktransform"><svg viewBox="0 0 94.19354980012292 95.481"
                                            height="95.481" width="94.19354980012292" id="textblock">
                                            <g><svg viewBox="0 0 94.19354980012292 95.481" height="95.481"
                                                    width="94.19354980012292">
                                                    <g><svg viewBox="0 0 94.19354980012292 95.481" height="95.481"
                                                            width="94.19354980012292">
                                                            <g><svg xmlns="http://www.w3.org/2000/svg"
                                                                    data-name="Layer 1"
                                                                    viewBox="2 1.1800000000000002 60.000024348596575 60.82011281011169"
                                                                    x="0" y="0" height="95.481"
                                                                    width="94.19354980012292" class="icon-icon-0"
                                                                    data-fill-palette-color="accent" id="icon-0"></svg>
                                                            </g>
                                                        </svg></g>
                                                </svg></g>
                                        </svg></g>
                                </svg></g>
                        </svg></g>
                    <defs></defs>
                    <mask id="770a6259-989d-489e-8704-765c71eb6076">
                        <g id="SvgjsG2172"><svg viewBox="0 0 94.19354980012292 95.481" height="95.481"
                                width="94.19354980012292">
                                <g><svg viewBox="0 0 94.19354980012292 95.481" height="95.481"
                                        width="94.19354980012292">
                                        <g><svg viewBox="0 0 94.19354980012292 95.481" height="95.481"
                                                width="94.19354980012292">
                                                <g id="SvgjsG2171"><svg viewBox="0 0 94.19354980012292 95.481"
                                                        height="95.481" width="94.19354980012292" id="SvgjsSvg2170">
                                                        <g><svg viewBox="0 0 94.19354980012292 95.481" height="95.481"
                                                                width="94.19354980012292">
                                                                <g><svg viewBox="0 0 94.19354980012292 95.481"
                                                                        height="95.481" width="94.19354980012292">
                                                                        <g><svg xmlns="http://www.w3.org/2000/svg"
                                                                                data-name="Layer 1"
                                                                                viewBox="2 1.1800000000000002 60.000024348596575 60.82011281011169"
                                                                                x="0" y="0" height="95.481"
                                                                                width="94.19354980012292"
                                                                                class="icon-icon-0"
                                                                                data-fill-palette-color="accent"
                                                                                id="SvgjsSvg2169">
                                                                                <path
                                                                                    d="M61.52 32.15a1 1 0 0 0-1 0L54 35.49A4.89 4.89 0 0 0 54 35a5 5 0 0 0-10 0 5 5 0 0 0 0.08 0.79L38 32.41v-0.83l6.5-3.71A1 1 0 0 0 45 27V22a1 1 0 0 0-1.46-0.89L37 24.49A4.89 4.89 0 0 0 37 24a5 5 0 0 0-10 0 5 5 0 0 0 0.08 0.79l-6.59-3.66A1 1 0 0 0 19 22v5a1 1 0 0 0 0.5 0.87L26 31.58v0.81l-6 3.1A4.89 4.89 0 0 0 20 35a5 5 0 0 0-10 0 5 5 0 0 0 0.08 0.79L3.49 32.13A1 1 0 0 0 2 33v5a1 1 0 0 0 0.55 0.89L10 42.62v6.15L4.11 60.55A1 1 0 0 0 5 62h5a1 1 0 0 0 0.89-0.55l4-8 3.17 7.93A1 1 0 0 0 19 62h5a1 1 0 0 0 0.92-1.38L20 48.8V42.62l5-2.52-4 9.52A1 1 0 0 0 22 51h5a1 1 0 0 0 0.89-0.55l4-8 3.17 7.93A1 1 0 0 0 36 51h5a1 1 0 0 0 0.95-1.32L38.71 40 44 42.62v6.15L38.11 60.55A1 1 0 0 0 39 62h5a1 1 0 0 0 0.89-0.55l4-8 3.17 7.93A1 1 0 0 0 53 62h5a1 1 0 0 0 0.92-1.38L54 48.8V42.62l7.45-3.72A1 1 0 0 0 62 38V33A1 1 0 0 0 61.52 32.15ZM49 32a3 3 0 0 1 2.26 4.95h0a3.06 3.06 0 0 1-1 0.75l0 0a2.89 2.89 0 0 1-0.49 0.17l-0.1 0A3 3 0 0 1 49 38a2.9 2.9 0 0 1-0.63-0.07l-0.09 0A3.06 3.06 0 0 1 47 37.25h0A3 3 0 0 1 49 32ZM32 21a3 3 0 0 1 3 3 3 3 0 0 1-0.74 1.95h0a3.06 3.06 0 0 1-1 0.75l0 0a2.89 2.89 0 0 1-0.49 0.17l-0.11 0A3 3 0 0 1 32 27a2.9 2.9 0 0 1-0.63-0.07l-0.09 0A3.06 3.06 0 0 1 30 26.25h0A3 3 0 0 1 32 21ZM15 32a3 3 0 0 1 2.26 4.95h0a3.06 3.06 0 0 1-1 0.75l0 0a2.89 2.89 0 0 1-0.49 0.17l-0.1 0A3 3 0 0 1 15 38a2.9 2.9 0 0 1-0.63-0.07l-0.09 0A3.06 3.06 0 0 1 13 37.25h0A3 3 0 0 1 15 32Zm3.55 9.11A1 1 0 0 0 18 42v7a1 1 0 0 0 0.08 0.38L22.5 60H19.68l-3.75-9.37A1 1 0 0 0 15 50a1 1 0 0 0-0.94 0.55L9.38 60H6.62l5.28-10.55A1 1 0 0 0 12 49V42a1 1 0 0 0-0.55-0.89L4 37.38V34.7l7.51 4.17A1 1 0 0 0 12 39h0a5 5 0 0 0 0.51 0.32l0.26 0.14 0.47 0.2 0.43 0.13 0.38 0.1A4.86 4.86 0 0 0 15 40a5 5 0 0 0 3.63-1.58L26 34.64v2.75ZM36.68 49l-3.75-9.37A1 1 0 0 0 32 39a1 1 0 0 0-0.94 0.55L26.38 49H23.5l4.42-10.62s0 0 0 0A1 1 0 0 0 28 38V31a1 1 0 0 0-0.5-0.87L21 26.42V23.7l7.51 4.17A1 1 0 0 0 29 28h0a5 5 0 0 0 0.51 0.33l0.26 0.14 0.47 0.2 0.43 0.13 0.39 0.1A4.85 4.85 0 0 0 32 29a5 5 0 0 0 3.63-1.58L43 23.64v2.78l-6.5 3.71A1 1 0 0 0 36 31v7a1 1 0 0 0 0 0.3v0L39.61 49ZM60 37.38l-7.45 3.72A1 1 0 0 0 52 42v7a1 1 0 0 0 0.08 0.38L56.5 60H53.68l-3.75-9.37A1 1 0 0 0 49 50a1 1 0 0 0-0.94 0.55L43.38 60H40.62l5.28-10.55A1 1 0 0 0 46 49V42a1 1 0 0 0-0.55-0.89L38 37.38V34.7l7.51 4.17A1 1 0 0 0 46 39h0a5 5 0 0 0 0.51 0.32l0.26 0.14 0.47 0.2 0.43 0.13 0.38 0.1A4.86 4.86 0 0 0 49 40a5 5 0 0 0 3.63-1.58L60 34.64Z"
                                                                                    fill="#E8E8E8"></path>
                                                                                <path
                                                                                    d="M48 6a3 3 0 1 0 3 3A3 3 0 0 0 48 6Zm0 4a1 1 0 1 1 1-1A1 1 0 0 1 48 10Z"
                                                                                    fill="#E8E8E8"></path>
                                                                                <rect x="53" y="2.39" width="2"
                                                                                    height="7.21"
                                                                                    transform="translate(5.74 30.96) rotate(-33.69)"
                                                                                    fill="#E8E8E8"></rect>
                                                                                <rect x="41.5" y="10.96" width="2"
                                                                                    height="7.07"
                                                                                    transform="translate(2.19 34.3) rotate(-45)"
                                                                                    fill="#E8E8E8"></rect>
                                                                                <path
                                                                                    d="M30.22 5.2c-0.14-0.23-0.28-0.44-0.41-0.62-2.29-3.09-6.24-3.4-7.81-3.4v2c1 0 4.2 0.16 6 2.39A4.47 4.47 0 0 0 25.1 7.74a3.11 3.11 0 0 0 0.05 3A3 3 0 0 0 27.55 12h0.33a3.87 3.87 0 0 0 2.88-1.17 3.72 3.72 0 0 0 0.38-3.67c0.27 0 0.55 0 0.81 0a10.69 10.69 0 0 1 6.39 2.75l1.31-1.51A12.67 12.67 0 0 0 32 5.18 15.65 15.65 0 0 0 30.22 5.2Zm-1 4.33A2 2 0 0 1 27.7 10a1.13 1.13 0 0 1-0.85-0.35 1.19 1.19 0 0 1 0.05-1 3 3 0 0 1 2.19-1.25C29.45 8.27 29.58 9.14 29.24 9.52Z"
                                                                                    fill="#E8E8E8"></path>
                                                                                <rect x="55.5" y="12.5" width="5"
                                                                                    height="2"
                                                                                    transform="translate(3.5 37.5) rotate(-36.87)"
                                                                                    fill="#E8E8E8"></rect>
                                                                                <path
                                                                                    d="M49 19a3 3 0 1 0 3-3A3 3 0 0 0 49 19Zm3-1a1 1 0 1 1-1 1A1 1 0 0 1 52 18Z"
                                                                                    fill="#E8E8E8"></path>
                                                                                <rect x="55" y="24" width="2" height="5"
                                                                                    fill="#E8E8E8"></rect>
                                                                                <rect x="47" y="24" width="2" height="4"
                                                                                    fill="#E8E8E8"></rect>
                                                                                <rect x="58" y="18.7" width="2"
                                                                                    height="3.61"
                                                                                    transform="translate(-1.46 36.17) rotate(-33.69)"
                                                                                    fill="#E8E8E8"></rect>
                                                                                <path
                                                                                    d="M17 5a3 3 0 1 0 3 3A3 3 0 0 0 17 5Zm0 4a1 1 0 1 1 1-1A1 1 0 0 1 17 9Z"
                                                                                    fill="#E8E8E8"></path>
                                                                                <rect x="7.39" y="5" width="7.21"
                                                                                    height="2"
                                                                                    transform="translate(-0.09 11.82) rotate(-56.31)"
                                                                                    fill="#E8E8E8"></rect>
                                                                                <rect x="16.96" y="13.5" width="7.07"
                                                                                    height="2"
                                                                                    transform="translate(-4.25 18.74) rotate(-45)"
                                                                                    fill="#E8E8E8"></rect>
                                                                                <rect x="4" y="11" width="2" height="5"
                                                                                    transform="translate(-8.8 9.4) rotate(-53.13)"
                                                                                    fill="#E8E8E8"></rect>
                                                                                <path
                                                                                    d="M11 22a3 3 0 1 0-3-3A3 3 0 0 0 11 22Zm0-4a1 1 0 1 1-1 1A1 1 0 0 1 11 18Z"
                                                                                    fill="#E8E8E8"></path>
                                                                                <rect x="6" y="24" width="2" height="5"
                                                                                    fill="#E8E8E8"></rect>
                                                                                <rect x="14" y="24" width="2" height="4"
                                                                                    fill="#E8E8E8"></rect>
                                                                                <rect x="2.2" y="19.5" width="3.61"
                                                                                    height="2"
                                                                                    transform="matrix(0.55, -0.83, 0.83, 0.55, -15.28, 12.46)"
                                                                                    fill="#E8E8E8"></rect>
                                                                                <rect x="23.5" y="16.38" width="2"
                                                                                    height="4.24"
                                                                                    transform="translate(-5.91 22.74) rotate(-45)"
                                                                                    fill="#E8E8E8"></rect>
                                                                                <rect x="29.5" y="12.5" width="5"
                                                                                    height="2"
                                                                                    transform="translate(-1.7 21.9) rotate(-36.87)"
                                                                                    fill="#E8E8E8"></rect>
                                                                                <rect x="36.38" y="16.5" width="4.24"
                                                                                    height="2"
                                                                                    transform="translate(-1.1 32.35) rotate(-45)"
                                                                                    fill="#E8E8E8"></rect>
                                                                                <rect x="40.2" y="2.5" width="3.61"
                                                                                    height="2"
                                                                                    transform="translate(15.79 36.5) rotate(-56.31)"
                                                                                    fill="#E8E8E8"></rect>
                                                                                <rect x="57.38" y="3.5" width="4.24"
                                                                                    height="2"
                                                                                    transform="translate(14.25 43.39) rotate(-45)"
                                                                                    fill="#E8E8E8"></rect>
                                                                                <rect x="3.5" y="2.38" width="2"
                                                                                    height="4.24"
                                                                                    transform="translate(-1.86 4.5) rotate(-45)"
                                                                                    fill="#E8E8E8"></rect>
                                                                            </svg></g>
                                                                    </svg></g>
                                                            </svg></g>
                                                    </svg></g>
                                            </svg></g>
                                    </svg></g>
                                <defs>
                                    <mask></mask>
                                </defs>
                            </svg>
                            <rect width="94.19354980012292" height="95.481" fill="black" stroke="none"
                                visibility="hidden"></rect>
                        </g>
                    </mask>
                    <linearGradient x1="0" x2="1" y1="0.578" y2="0.595" id="593646d3-d89f-499e-8041-80d4bbecb9e7">
                        <stop stop-color="#6ee2f5" offset="0"></stop>
                        <stop stop-color="#6454f0" offset="1"></stop>
                    </linearGradient>
                    <rect width="94.19354980012292" height="95.481" fill="#ffffff"
                        mask="url(#770a6259-989d-489e-8704-765c71eb6076)" data-fill-palette-color="accent"></rect>
                </svg>
                <rect width="94.19354980012292" height="95.481" fill="none" stroke="none" visibility="hidden"
                    fill="#E9E9E9"></rect>
            </g>
        </svg></g>
</svg>